<?xml version="1.0" encoding="utf-8"?>
<svg id="master-artboard" viewBox="0 0 490 490" version="1.1" xmlns="http://www.w3.org/2000/svg" x="0px" y="0px" style="enable-background:new 0 0 1400 980;" width="490px" height="490px"><rect id="ee-background" x="0" y="0" width="490" height="490" style="fill: white; fill-opacity: 0; pointer-events: none;"/><defs><linearGradient id="gradient-0" gradientUnits="userSpaceOnUse" x1="652" y1="46" x2="652" y2="146">
                <stop offset="0" style="stop-color: #000000"/>
                <stop offset="1" style="stop-color: #000000"/>
              </linearGradient><radialGradient id="gradient-1" gradientUnits="objectBoundingBox" cx="0.5" cy="0.5" r="0.5">
                <stop offset="0" style="stop-color: #000000"/>
                <stop offset="1" style="stop-color: #000000"/>
              </radialGradient></defs><g transform="matrix(4.900000095367432, 0, 0, 4.900000095367432, -2950.1357736779973, -224.28698730468747)"><g id="g-1" transform="matrix(1, 0, 0, 1, 0, 0)">
	<g id="g-2">
		<path class="st0" d="M652,46c27.6,0,50,22.4,50,50s-22.4,50-50,50s-50-22.4-50-50S624.4,46,652,46z" style="fill: rgb(255, 255, 255); fill-opacity: 1;"/>
	</g>
</g></g><g id="g-3" transform="matrix(-0.018497195094823834, -2.5020480155944824, 2.5020480155944824, -0.018497195094823834, -727.637116451435, 508.45468139648426)">
	<g id="g-4">
		<path class="st0" d="M103,336.5L53,424h100L103,336.5" style="fill: rgb(212, 212, 212); stroke: rgb(0, 0, 0); stroke-width: 0; fill-opacity: 1; stroke-opacity: 0; paint-order: stroke;"/>
	</g>
</g></svg>